<svg xmlns="http://www.w3.org/2000/svg" viewBox="0 0 192 48"><path fill="#0091D3" d="M4.63 44.84V27.63c0-1.63-1.07-2.76-2.89-3.32A6.8 6.8 0 0 0 0 24c2.73-.1 4.63-1.53 4.63-3.63V3.16c0-2 1.97-3.17 5.76-3.16h4.23v1.6h-.83c-3.7-.02-4.46.6-4.46 3.15v15.37c0 2.1-2.13 3.68-5 3.88 2.87.2 5 1.79 5 3.88v15.37c0 2.56.68 3.17 4.46 3.16h.83v1.58h-4.31c-3.74 0-5.68-1.16-5.68-3.15ZM181.6 48l-4.23-.01V46.4h.83c3.78.01 4.46-.6 4.46-3.15V27.88c0-2.1 2.13-3.68 5-3.88-2.87-.2-5-1.79-5-3.88V4.75c0-2.56-.76-3.17-4.46-3.16h-.83V.01L181.6 0c3.78-.01 5.76 1.16 5.76 3.15v17.22c0 2.1 1.9 3.53 4.63 3.63a7.2 7.2 0 0 0-1.74.3c-1.82.57-2.89 1.7-2.89 3.33v17.21c0 1.99-1.94 3.16-5.69 3.16h-.07Zm-15.26-9.52V26.99h-11.38v11.48h-6.11V9.52h6.1v11.31h11.39V9.53h6.1v28.94h-6.1Zm-29.51 0c-8.73 0-13.09-4.81-13.09-14.43v-.14c.09-9.6 4.46-14.39 13.13-14.39h9.95v6.16h-11.17a5 5 0 0 0-4.37 2c-.95 1.34-1.43 3.47-1.44 6.4v.36c0 5.25 1.92 7.88 5.76 7.88h11.18v6.15h-9.95Zm-28.78 0c-1.49.04-2.96-.21-4.34-.75a7.72 7.72 0 0 1-4.5-4.84 10.74 10.74 0 0 1-.35-4.96c.1-.58.28-1.15.53-1.69.24-.52.56-1 .96-1.4.4-.43.9-.74 1.46-.93a4.6 4.6 0 0 1-2.4-2.48 10.55 10.55 0 0 1-.65-3.9 7.45 7.45 0 0 1 2.4-5.92 10.17 10.17 0 0 1 6.89-2.09h14.3v6.16H107.3a2.28 2.28 0 0 0-1.72.77 2.71 2.71 0 0 0-.04 3.63 2.33 2.33 0 0 0 1.8.75h15V27H107.3a2.27 2.27 0 0 0-1.72.77 2.7 2.7 0 0 0-.72 1.91 2.63 2.63 0 0 0 1.52 2.45c.3.13.64.2.97.2h15v6.15h-14.3Zm-23.3 0v-22.8H78V9.52h19.23v6.16h-6.37v22.8h-6.1Zm-14.93 0V9.52h6.1v28.95h-6.1Zm-25.28 0v-8.94a8.32 8.32 0 0 1 2.47-6.49 9.77 9.77 0 0 1 6.78-2.22h5.75a2.35 2.35 0 0 0 1.77-.75 2.5 2.5 0 0 0 .71-1.8 2.58 2.58 0 0 0-.71-1.83 2.3 2.3 0 0 0-1.73-.77H44.55V9.52h14.3c1.44-.03 2.87.21 4.21.71a8.07 8.07 0 0 1 2.9 1.9 7.22 7.22 0 0 1 1.66 2.77 10.55 10.55 0 0 1 .02 6.53 7.56 7.56 0 0 1-1.61 2.8 8.24 8.24 0 0 1-2.88 2c-1.36.54-2.83.8-4.3.76h-5.88a2.05 2.05 0 0 0-1.66.8 2.82 2.82 0 0 0-.65 1.85v8.84h-6.1Zm-15.67 0c-1.48.04-2.95-.21-4.34-.75a7.73 7.73 0 0 1-4.5-4.84 10.74 10.74 0 0 1-.34-4.95c.1-.59.28-1.16.53-1.7.24-.51.56-.99.95-1.4.41-.42.91-.74 1.46-.93a4.6 4.6 0 0 1-2.4-2.48 10.55 10.55 0 0 1-.65-3.9 7.46 7.46 0 0 1 2.4-5.92 10.17 10.17 0 0 1 6.89-2.09h14.3v6.16H28.14a2.28 2.28 0 0 0-1.73.77 2.7 2.7 0 0 0-.04 3.63 2.33 2.33 0 0 0 1.81.75h15V27H28.14a2.28 2.28 0 0 0-1.73.77 2.7 2.7 0 0 0-.72 1.91 2.64 2.64 0 0 0 1.52 2.45c.31.13.64.2.97.2h15v6.15h-14.3Z"/></svg>
